<svg width="22" height="24" viewBox="0 0 22 24" fill="none" xmlns="http://www.w3.org/2000/svg">
<path d="M19.4905 19.7095C19.4388 19.7095 19.3917 19.7346 19.3622 19.7744C18.9932 20.2882 18.5753 20.7818 18.1091 21.2318C17.4531 21.8651 16.7282 22.4193 15.9435 22.872C15.8047 22.9522 15.8624 23.1606 16.0234 23.1606H21.5351C21.6222 23.1606 21.6927 23.0908 21.6927 23.0057V19.8655C21.6927 19.7793 21.6222 19.7095 21.5351 19.7095H19.4905Z" fill="#EE4723"/>
<path d="M20.1471 13.798C20.1471 11.6101 18.8928 8.85942 16.0112 5.38815C14.0204 2.98978 12.0557 1.15051 11.9736 1.07305L10.873 0.0459634C10.8125 -0.0107639 10.7171 -0.0107639 10.656 0.0459634L9.55543 1.07305C9.47274 1.15051 7.50859 2.98978 5.51725 5.38815C2.63625 8.85942 1.24875 11.8987 1.24875 14.0865C1.24875 15.5609 1.59951 17.1842 2.22222 18.4747C2.24831 18.5276 2.30381 18.5614 2.36541 18.5614H6.17271C6.30813 18.5614 6.38028 18.406 6.29148 18.3067C5.333 17.2223 4.75968 15.6061 4.75968 14.0865C4.75968 13.4805 5.09102 11.5191 8.22177 7.74069C9.09035 6.69233 9.96502 5.68106 10.6527 4.96324C10.7143 4.89778 10.8192 4.89778 10.8813 4.96215C11.5695 5.6696 12.4453 6.58433 13.3145 7.63269C16.4452 11.4116 16.7843 13.2111 16.7843 13.8165C16.7843 17.062 13.7751 19.7003 10.5195 19.7216C10.5062 19.7216 0.157065 19.7129 0.157065 19.7129C0.06993 19.7129 0 19.7827 0 19.8683V23.0085C0 23.0947 0.06993 23.1634 0.157065 23.1634C2.81607 23.1634 10.5067 23.1634 10.5206 23.1634C15.7259 23.1378 20.1471 18.946 20.1471 13.798Z" fill="#EE4723"/>
</svg>
