<svg width="134" height="24" viewBox="0 0 134 24" fill="none" xmlns="http://www.w3.org/2000/svg">
<path d="M33.053 19.6096C32.271 19.6096 31.5151 19.4607 30.8042 19.1667C30.0938 18.8732 29.46 18.456 28.9199 17.9252C28.3655 17.3803 27.937 16.7503 27.6462 16.0521C27.3548 15.3551 27.2072 14.6181 27.2072 13.8643C27.2072 13.0963 27.3543 12.3529 27.6462 11.6547C27.937 10.9565 28.3655 10.326 28.9199 9.7816C29.4605 9.25087 30.0938 8.8336 30.8042 8.54014C31.5146 8.24723 32.2716 8.09778 33.053 8.09778C33.8339 8.09778 34.5904 8.24669 35.3008 8.54014C36.0106 8.8336 36.6444 9.25087 37.185 9.7816C37.7389 10.326 38.1685 10.956 38.4598 11.6547C38.7512 12.354 38.9005 13.0969 38.9005 13.8643V19.4907C38.9005 19.5583 38.8445 19.6129 38.7751 19.6129H37.3548C37.286 19.6129 37.23 19.5583 37.23 19.4907V18.0758C37.23 17.9629 37.0884 17.91 37.0124 17.9945C36.8326 18.1936 36.6489 18.3714 36.4474 18.5225C36.1055 18.7821 35.747 18.9943 35.369 19.1563C34.9916 19.3156 34.602 19.4334 34.203 19.5032C33.8067 19.5736 33.421 19.6096 33.053 19.6096ZM33.053 9.71505C32.4764 9.71505 31.9269 9.82414 31.4186 10.0401C30.9096 10.2561 30.4606 10.554 30.0832 10.9254C29.7053 11.2969 29.4022 11.7414 29.183 12.2476C28.9638 12.7538 28.8522 13.2976 28.8522 13.8649C28.8522 14.4316 28.9638 14.9721 29.183 15.4707C29.4028 15.9703 29.7053 16.4121 30.0832 16.782C30.4612 17.154 30.9102 17.4518 31.4186 17.6683C31.9258 17.8838 32.4758 17.9929 33.053 17.9929C33.6297 17.9929 34.1797 17.8838 34.6864 17.6683C35.1948 17.4518 35.6443 17.154 36.0223 16.782C36.4002 16.4116 36.7027 15.9703 36.923 15.4707C37.1428 14.9711 37.2538 14.4305 37.2538 13.8649C37.2538 13.2981 37.1428 12.7543 36.9225 12.2476C36.7022 11.7409 36.4002 11.2963 36.0223 10.9254C35.6443 10.5545 35.1948 10.2561 34.6864 10.0401C34.1786 9.82414 33.6286 9.71505 33.053 9.71505Z" fill="white"/>
<path d="M46.6445 23.9869C45.8641 23.9869 45.111 23.8401 44.4073 23.5554C42.9737 22.8894 42.0713 21.8138 41.8126 21.4783C41.7693 21.4221 41.7827 21.3431 41.8409 21.3032L42.9742 20.5205C43.0314 20.4807 43.108 20.4932 43.1491 20.5494C43.3272 20.7883 43.8367 21.4118 44.6159 21.8721C45.2142 22.2125 45.9019 22.3707 46.6439 22.3707C47.2205 22.3707 47.77 22.2611 48.2784 22.0451C48.7868 21.8285 49.2363 21.5318 49.6137 21.1598C49.9911 20.7878 50.2897 20.3471 50.51 19.848C50.7298 19.3478 50.8358 18.8072 50.8358 18.2416V18.1309C50.8358 18.0218 50.7048 17.9661 50.6232 18.0409C50.0916 18.5247 49.5016 18.8951 48.91 19.1465C48.1846 19.4536 47.4231 19.6096 46.6422 19.6096C45.8608 19.6096 45.1049 19.4607 44.395 19.1667C43.6841 18.8732 43.0508 18.456 42.5114 17.9252C41.9564 17.3803 41.5285 16.7503 41.2377 16.0521C40.9463 15.3551 40.7986 14.6181 40.7986 13.8643C40.7986 13.0963 40.9463 12.3529 41.2377 11.6547C41.5285 10.9565 41.9575 10.326 42.5114 9.7816C43.0514 9.25087 43.6852 8.8336 44.3956 8.54014C45.106 8.24723 45.863 8.09778 46.6439 8.09778C47.0274 8.09778 47.4314 8.14032 47.8427 8.22378C48.2534 8.30723 48.6558 8.42832 49.0393 8.58105C49.4244 8.73542 49.7885 8.93778 50.1238 9.18269C50.3358 9.33814 50.5311 9.50287 50.7076 9.68232C50.7798 9.75541 50.9052 9.71942 50.9235 9.61851L51.0933 8.22978C51.1044 8.17032 51.1566 8.12669 51.2177 8.12669H52.3793C52.4492 8.12669 52.5058 8.18287 52.5058 8.2516V18.2405C52.5058 19.0069 52.3499 19.7503 52.0585 20.4496C51.7671 21.1478 51.3342 21.7718 50.7798 22.3025C50.2403 22.8452 49.6043 23.2674 48.8933 23.5543C48.1835 23.8401 47.4253 23.9869 46.6445 23.9869ZM46.6445 9.71505C46.0684 9.71505 45.5184 9.82414 45.0105 10.0401C44.5016 10.2561 44.0526 10.554 43.6747 10.9254C43.2973 11.2969 42.9937 11.7414 42.7744 12.2476C42.5547 12.7543 42.4437 13.2976 42.4437 13.8649C42.4437 14.4316 42.5547 14.9721 42.7744 15.4707C42.9942 15.9703 43.2973 16.4121 43.6747 16.782C44.0526 17.154 44.5016 17.4518 45.0105 17.6683C45.5178 17.8838 46.0678 17.9929 46.6445 17.9929C47.2211 17.9929 47.7711 17.8838 48.2789 17.6683C48.7873 17.4518 49.2369 17.154 49.6143 16.782C49.9917 16.4116 50.2947 15.9703 50.5145 15.4707C50.7342 14.9711 50.8458 14.4305 50.8458 13.8649C50.8458 13.2981 50.7342 12.7543 50.5145 12.2476C50.2947 11.7409 49.9922 11.2963 49.6143 10.9254C49.2363 10.554 48.7868 10.2561 48.2789 10.0401C47.7705 9.82414 47.2211 9.71505 46.6445 9.71505Z" fill="white"/>
<path d="M56.0955 19.4896V8.25218C56.0955 8.18345 56.1532 8.12727 56.2226 8.12727H57.6378C57.7083 8.12727 57.7649 8.18345 57.7649 8.25218V19.4896C57.7649 19.5578 57.7083 19.6145 57.6378 19.6145H56.2226C56.1527 19.6145 56.0955 19.5578 56.0955 19.4896ZM56.9014 6.40036C56.6261 6.40036 56.3935 6.30872 56.2098 6.12763C56.025 5.94654 55.9318 5.71799 55.9318 5.4469C55.9318 5.17745 56.0244 4.94618 56.2082 4.75799C56.393 4.56872 56.6266 4.47327 56.9019 4.47327C57.1766 4.47327 57.4131 4.56818 57.6051 4.75636C57.796 4.94508 57.8931 5.17745 57.8931 5.4469C57.8931 5.71799 57.796 5.94708 57.604 6.12872C57.4114 6.30872 57.1761 6.40036 56.9014 6.40036Z" fill="white"/>
<path d="M61.7715 19.4913V4.60039C61.7715 4.53275 61.8282 4.47766 61.8964 4.47766H63.3172C63.386 4.47766 63.4415 4.53275 63.4415 4.60039V19.4918C63.4415 19.5595 63.386 19.6151 63.3172 19.6151H61.8964C61.8282 19.6146 61.7715 19.5589 61.7715 19.4913Z" fill="white"/>
<path d="M72.0551 19.6096C71.2726 19.6096 70.5167 19.4612 69.8063 19.1667C69.0947 18.8732 68.4615 18.456 67.922 17.9247C67.367 17.3809 66.9391 16.7541 66.6477 16.0631C66.3569 15.372 66.2087 14.6329 66.2087 13.8649C66.2087 13.0969 66.3569 12.3534 66.6477 11.6552C66.9391 10.9571 67.3676 10.3341 67.9226 9.80233C68.4615 9.25851 69.0953 8.83415 69.8063 8.5407C70.5161 8.24779 71.2726 8.09888 72.0551 8.09888C72.8366 8.09888 73.5891 8.24724 74.2929 8.5407C74.9966 8.83415 75.6326 9.25851 76.1876 9.80288C76.7399 10.3331 77.16 10.9636 77.4525 11.6765C77.7433 12.3889 77.8821 13.1389 77.8821 13.9063V13.9936H67.9842C67.912 13.9936 67.8549 14.0536 67.8582 14.1251C67.8848 14.5821 67.9975 15.0769 68.1934 15.5023C68.4204 15.996 68.7279 16.4296 69.1047 16.7934C69.4838 17.1583 69.9295 17.4529 70.4317 17.6683C70.9323 17.8838 71.4774 17.9923 72.0551 17.9923C72.8377 17.9923 73.5614 17.7976 74.2063 17.4131C74.8518 17.0285 75.3596 16.4929 75.717 15.8585L75.7414 15.7974H77.5591L77.5147 15.9283C77.2166 16.668 76.7698 17.3432 76.1876 17.9154C75.6326 18.4461 74.9966 18.8683 74.2929 19.1612C73.5891 19.4558 72.8366 19.6096 72.0551 19.6096ZM75.7731 12.3529C75.8652 12.3529 75.9257 12.2591 75.8874 12.1767C75.576 11.5112 75.106 10.9276 74.4849 10.4776C73.7778 9.96488 72.9603 9.7096 72.0551 9.7096C71.6022 9.7096 71.1632 9.78051 70.7509 9.91524C70.3379 10.0505 69.955 10.2436 69.6126 10.4858C69.269 10.7291 68.9627 11.0149 68.7024 11.352C68.5053 11.6051 68.3394 11.8974 68.2045 12.1767C68.1657 12.2585 68.2267 12.3529 68.3189 12.3529H75.7731Z" fill="white"/>
<path d="M85.2669 19.6097C84.4855 19.6097 83.729 19.4608 83.018 19.1668C82.3071 18.8728 81.6738 18.4561 81.1338 17.9254C80.5788 17.3804 80.1509 16.7504 79.8601 16.0523C79.5693 15.3552 79.4205 14.6117 79.4205 13.8432C79.4205 13.0894 79.5693 12.353 79.8601 11.6548C80.1509 10.9566 80.5799 10.3261 81.1338 9.78172C81.6738 9.25099 82.3082 8.83372 83.018 8.54026C83.7284 8.24735 84.4855 8.0979 85.2669 8.0979C86.0478 8.0979 86.8048 8.24681 87.5152 8.54026C88.0491 8.76063 88.8938 9.37863 89.2801 9.68026C89.3628 9.74517 89.4855 9.68736 89.4855 9.58317V4.60045C89.4855 4.53226 89.541 4.47717 89.6103 4.47717H90.9457C91.015 4.47717 91.0717 4.53226 91.0717 4.60045V13.8437C91.0717 14.6117 90.9446 15.3546 90.6526 16.0528C90.3624 16.7504 89.9433 17.3821 89.39 17.9259C88.8494 18.4572 88.2212 18.8739 87.5113 19.1674C86.7993 19.4608 86.0478 19.6097 85.2669 19.6097ZM85.2669 9.71517C84.6908 9.71517 84.1408 9.82426 83.6324 10.0403C83.124 10.2563 82.6745 10.5541 82.2976 10.9255C81.9197 11.297 81.6167 11.7383 81.3969 12.2379C81.1771 12.7364 81.0667 13.277 81.0667 13.8437C81.0667 14.411 81.1771 14.9548 81.3969 15.461C81.6167 15.9677 81.9197 16.4123 82.2976 16.7826C82.675 17.1546 83.124 17.4524 83.6324 17.669C84.1397 17.8844 84.6897 17.9935 85.2669 17.9935C85.843 17.9935 86.3936 17.8844 86.9003 17.669C87.4086 17.4524 87.8593 17.1546 88.2367 16.7826C88.6136 16.4123 88.916 15.9677 89.1369 15.461C89.3561 14.9537 89.4677 14.4104 89.4677 13.8437C89.4677 13.2781 89.3561 12.737 89.1369 12.2379C88.916 11.7383 88.6147 11.297 88.2367 10.9255C87.8588 10.5541 87.4086 10.2563 86.9003 10.0403C86.3924 9.82426 85.843 9.71517 85.2669 9.71517Z" fill="white"/>
<path d="M93.4908 19.4896V8.25164C93.4908 8.18345 93.5475 8.12727 93.6168 8.12727H94.754C94.8095 8.12727 94.8578 8.16164 94.8745 8.21291L95.1287 8.98582C95.1553 9.066 95.2557 9.09763 95.324 9.04636C95.7059 8.75891 96.1232 8.532 96.5711 8.364C97.1133 8.16054 97.6916 8.06018 98.2894 8.06018C98.4881 8.06018 98.679 8.07163 98.8583 8.09291C99.0314 8.11363 99.2296 8.13873 99.4149 8.16654L99.5015 8.17745V9.87273L99.3772 9.84C99.0209 9.73255 98.6518 9.678 98.2966 9.678C97.8604 9.678 97.4413 9.75982 97.0595 9.92018C96.6771 10.0811 96.3352 10.3058 96.0494 10.5867C95.7636 10.8687 95.5532 11.2025 95.3901 11.5778C95.2258 11.9531 95.1608 12.3611 95.1608 12.7904V19.4891C95.1608 19.5573 95.1042 19.6129 95.0349 19.6129H93.6168C93.5475 19.6135 93.4908 19.5578 93.4908 19.4896Z" fill="white"/>
<path d="M106.456 19.6097C105.674 19.6097 104.922 19.4608 104.219 19.1668C103.514 18.8733 102.879 18.456 102.325 17.9264C101.785 17.3809 101.359 16.7504 101.061 16.0522C100.763 15.3551 100.61 14.6182 100.61 13.8644C100.61 13.0964 100.763 12.3529 101.061 11.6548C101.359 10.9566 101.785 10.326 102.324 9.78275C102.879 9.25093 103.516 8.83421 104.219 8.54075C104.922 8.24784 105.674 8.09839 106.456 8.09839C107.238 8.09839 107.994 8.2473 108.705 8.54075C109.414 8.83421 110.056 9.25148 110.609 9.78166C111.151 10.3271 111.575 10.9566 111.873 11.6548C112.172 12.3529 112.323 13.0969 112.323 13.8649C112.323 14.6188 112.172 15.3551 111.873 16.0533C111.575 16.7504 111.15 17.3809 110.61 17.9253C110.057 18.4571 109.416 18.8738 108.705 19.1673C107.994 19.4608 107.238 19.6097 106.456 19.6097ZM106.456 9.71512C105.881 9.71512 105.331 9.82421 104.822 10.0402C104.314 10.2562 103.863 10.554 103.486 10.9255C103.108 11.2969 102.805 11.7415 102.587 12.2477C102.368 12.7544 102.255 13.2977 102.255 13.8649C102.255 14.4317 102.367 14.9722 102.587 15.4708C102.806 15.9704 103.108 16.4122 103.486 16.782C103.865 17.154 104.314 17.4518 104.822 17.6684C105.328 17.8838 105.88 17.9929 106.456 17.9929C107.033 17.9929 107.582 17.8838 108.089 17.6684C108.599 17.4518 109.053 17.154 109.437 16.782C109.822 16.4106 110.128 15.9693 110.348 15.4708C110.568 14.9711 110.679 14.4306 110.679 13.8649C110.679 13.2982 110.568 12.7544 110.348 12.2477C110.128 11.742 109.822 11.2969 109.437 10.9255C109.053 10.554 108.599 10.2562 108.089 10.0397C107.583 9.82421 107.033 9.71512 106.456 9.71512Z" fill="white"/>
<path d="M114.817 23.5926C114.748 23.5926 114.693 23.5375 114.693 23.4704V13.8649C114.693 13.0969 114.839 12.3535 115.128 11.6553C115.42 10.9571 115.848 10.3266 116.402 9.78221C116.943 9.25148 117.576 8.83421 118.286 8.54075C118.996 8.24784 119.753 8.09839 120.534 8.09839C121.316 8.09839 122.072 8.2473 122.782 8.54075C123.492 8.83421 124.127 9.25148 124.666 9.78221C125.22 10.3266 125.648 10.9566 125.94 11.6553C126.231 12.3546 126.38 13.0975 126.38 13.8649C126.38 14.6188 126.231 15.354 125.94 16.0528C125.649 16.7504 125.22 17.382 124.666 17.9258C124.126 18.4571 123.492 18.8738 122.782 19.1673C122.072 19.4608 121.315 19.6102 120.534 19.6102C119.752 19.6102 118.996 19.4613 118.286 19.1673C117.466 18.798 116.865 18.3278 116.569 18.0638C116.49 17.9918 116.361 18.0475 116.361 18.1533V23.4709C116.361 23.538 116.307 23.5931 116.239 23.5931H114.817V23.5926ZM120.534 9.71512C119.958 9.71512 119.408 9.82421 118.899 10.0402C118.391 10.2562 117.941 10.554 117.565 10.9255C117.187 11.2969 116.884 11.7415 116.665 12.2477C116.445 12.7544 116.333 13.2977 116.333 13.8649C116.333 14.4317 116.444 14.9722 116.665 15.4708C116.884 15.9704 117.187 16.4122 117.565 16.782C117.943 17.154 118.391 17.4518 118.899 17.6684C119.406 17.8838 119.957 17.9929 120.534 17.9929C121.111 17.9929 121.66 17.8838 122.168 17.6684C122.677 17.4518 123.126 17.154 123.503 16.782C123.88 16.4117 124.184 15.9704 124.404 15.4708C124.622 14.9711 124.736 14.4306 124.736 13.8649C124.736 13.2982 124.622 12.7544 124.404 12.2477C124.184 11.7409 123.88 11.2964 123.503 10.9255C123.125 10.554 122.677 10.2562 122.168 10.0402C121.66 9.82421 121.11 9.71512 120.534 9.71512Z" fill="white"/>
<path d="M19.4905 19.7095C19.4388 19.7095 19.3917 19.7346 19.3622 19.7744C18.9932 20.2882 18.5753 20.7818 18.1091 21.2318C17.4531 21.8651 16.7282 22.4193 15.9435 22.872C15.8047 22.9522 15.8624 23.1606 16.0234 23.1606H21.5351C21.6222 23.1606 21.6927 23.0908 21.6927 23.0057V19.8655C21.6927 19.7793 21.6222 19.7095 21.5351 19.7095H19.4905Z" fill="#EE4723"/>
<path d="M20.1471 13.798C20.1471 11.6101 18.8928 8.85942 16.0112 5.38815C14.0204 2.98978 12.0557 1.15051 11.9736 1.07305L10.873 0.0459634C10.8125 -0.0107639 10.7171 -0.0107639 10.656 0.0459634L9.55543 1.07305C9.47274 1.15051 7.50859 2.98978 5.51725 5.38815C2.63625 8.85942 1.24875 11.8987 1.24875 14.0865C1.24875 15.5609 1.59951 17.1842 2.22222 18.4747C2.24831 18.5276 2.30381 18.5614 2.36541 18.5614H6.17271C6.30813 18.5614 6.38028 18.406 6.29148 18.3067C5.333 17.2223 4.75968 15.6061 4.75968 14.0865C4.75968 13.4805 5.09102 11.5191 8.22177 7.74069C9.09035 6.69233 9.96502 5.68106 10.6527 4.96324C10.7143 4.89778 10.8192 4.89778 10.8813 4.96215C11.5695 5.6696 12.4453 6.58433 13.3145 7.63269C16.4452 11.4116 16.7843 13.2111 16.7843 13.8165C16.7843 17.062 13.7751 19.7003 10.5195 19.7216C10.5062 19.7216 0.157065 19.7129 0.157065 19.7129C0.06993 19.7129 0 19.7827 0 19.8683V23.0085C0 23.0947 0.06993 23.1634 0.157065 23.1634C2.81607 23.1634 10.5067 23.1634 10.5206 23.1634C15.7259 23.1378 20.1471 18.946 20.1471 13.798Z" fill="#EE4723"/>
</svg>
