<svg width="41" height="48" viewBox="0 0 41 48" fill="none" xmlns="http://www.w3.org/2000/svg">
<path d="M38.892 6.04L37.662 5.792C32.014 4.664 26.542 2.786 21.394 0.21C20.832 -0.07 20.168 -0.07 19.606 0.21C14.458 2.786 8.986 4.664 3.338 5.792L2.108 6.04C1.174 6.226 0.5 7.046 0.5 8V15.366C0.5 24.048 3.88 32.21 10.02 38.348L19.086 47.414C19.476 47.804 19.988 48 20.5 48C21.012 48 21.524 47.804 21.914 47.414L30.98 38.348C37.12 32.21 40.5 24.048 40.5 15.366V8C40.5 7.046 39.826 6.226 38.892 6.04Z" fill="#EE4732"/>
<path fill-rule="evenodd" clip-rule="evenodd" d="M20.5 12.96C19.396 12.96 18.5 12.064 18.5 10.96C18.5 9.85596 19.396 8.95996 20.5 8.95996C21.604 8.95996 22.5 9.85596 22.5 10.96C22.5 12.064 21.604 12.96 20.5 12.96ZM20.5 20.96C19.396 20.96 18.5 20.064 18.5 18.96C18.5 17.856 19.396 16.96 20.5 16.96C21.604 16.96 22.5 17.856 22.5 18.96C22.5 20.064 21.604 20.96 20.5 20.96ZM20.5 28.96C19.396 28.96 18.5 28.064 18.5 26.96C18.5 25.856 19.396 24.96 20.5 24.96C21.604 24.96 22.5 25.856 22.5 26.96C22.5 28.064 21.604 28.96 20.5 28.96ZM20.5 36.96C19.396 36.96 18.5 36.064 18.5 34.96C18.5 33.856 19.396 32.96 20.5 32.96C21.604 32.96 22.5 33.856 22.5 34.96C22.5 36.064 21.604 36.96 20.5 36.96ZM16.5 32.96C15.396 32.96 14.5 32.064 14.5 30.96C14.5 29.856 15.396 28.96 16.5 28.96C17.604 28.96 18.5 29.856 18.5 30.96C18.5 32.064 17.604 32.96 16.5 32.96ZM12.5 28.96C11.396 28.96 10.5 28.064 10.5 26.96C10.5 25.856 11.396 24.96 12.5 24.96C13.604 24.96 14.5 25.856 14.5 26.96C14.5 28.064 13.604 28.96 12.5 28.96ZM8.5 24.96C7.396 24.96 6.5 24.064 6.5 22.96C6.5 21.856 7.396 20.96 8.5 20.96C9.604 20.96 10.5 21.856 10.5 22.96C10.5 24.064 9.604 24.96 8.5 24.96ZM8.5 12.96C9.604 12.96 10.5 13.856 10.5 14.96C10.5 16.064 9.604 16.96 8.5 16.96C7.396 16.96 6.5 16.064 6.5 14.96C6.5 13.856 7.396 12.96 8.5 12.96ZM12.5 8.95996C13.604 8.95996 14.5 9.85596 14.5 10.96C14.5 12.064 13.604 12.96 12.5 12.96C11.396 12.96 10.5 12.064 10.5 10.96C10.5 9.85596 11.396 8.95996 12.5 8.95996ZM12.5 20.96C11.396 20.96 10.5 20.064 10.5 18.96C10.5 17.856 11.396 16.96 12.5 16.96C13.604 16.96 14.5 17.856 14.5 18.96C14.5 20.064 13.604 20.96 12.5 20.96ZM16.5 20.96C17.604 20.96 18.5 21.856 18.5 22.96C18.5 24.064 17.604 24.96 16.5 24.96C15.396 24.96 14.5 24.064 14.5 22.96C14.5 21.856 15.396 20.96 16.5 20.96ZM16.5 12.96C17.604 12.96 18.5 13.856 18.5 14.96C18.5 16.064 17.604 16.96 16.5 16.96C15.396 16.96 14.5 16.064 14.5 14.96C14.5 13.856 15.396 12.96 16.5 12.96Z" fill="white"/>
</svg>
