<svg aria-hidden="true" style="position:absolute;width:0;height:0" xmlns="http://www.w3.org/2000/svg" overflow="hidden"><defs><symbol id="icon-bookmark" viewBox="0 0 20 20"><path d="M14 2v17l-4-4-4 4V2c0-.553.585-1.02 1-1h6c.689-.02 1 .447 1 1z"/></symbol><symbol id="icon-bookmarks" viewBox="0 0 20 20"><path d="M15 0h-4a1 1 0 00-1 1l.023.222c1.102 0 2 .897 2 2v11.359L13 13.4l3 3.6V1a1 1 0 00-1-1zM9.023 3H5a1 1 0 00-1 1v16l3-3.6 3 3.6V4c0-.553-.424-1-.977-1z"/></symbol><symbol id="icon-chevron-thin-right" viewBox="0 0 20 20"><path d="M13.25 10L6.109 2.58a.697.697 0 010-.979.68.68 0 01.969 0l7.83 7.908a.697.697 0 010 .979l-7.83 7.908c-.268.271-.701.27-.969 0s-.268-.707 0-.979L13.25 10z"/></symbol><symbol id="icon-aircraft-take-off" viewBox="0 0 20 20"><path d="M19.87 6.453c.119.257.127 1.29-4.884 3.642l-4.913 2.306c-1.71.803-4.191 1.859-5.285 2.151-.766.204-1.497-.316-1.497-.316S1.085 12.261.499 11.817c-.585-.444-.535-.67.215-.91.467-.149 3.13.493 4.265.78A91.697 91.697 0 018.12 9.889c-1.396-1.033-4.008-2.962-4.841-3.55-.799-.565.01-.768.01-.768.368-.099 1.162-.228 1.562-.144 2.721.569 7.263 2.071 7.611 2.186a90.641 90.641 0 012.922-1.465c2.075-.974 4.327-.037 4.486.305z"/></symbol><symbol id="icon-chat" viewBox="0 0 20 20"><path d="M5.8 12.2V6H2C.9 6 0 6.9 0 8v6c0 1.1.9 2 2 2h1v3l3-3h5c1.1 0 2-.9 2-2v-1.82a.943.943 0 01-.2.021l-7-.001zM18 1H9c-1.1 0-2 .9-2 2v8h7l3 3v-3h1c1.1 0 2-.899 2-2V3c0-1.1-.9-2-2-2z"/></symbol><symbol id="icon-home" viewBox="0 0 20 20"><path d="M18.672 11H17v6c0 .445-.194 1-1 1h-4v-6H8v6H4c-.806 0-1-.555-1-1v-6H1.328c-.598 0-.47-.324-.06-.748L9.292 2.22c.195-.202.451-.302.708-.312.257.01.513.109.708.312l8.023 8.031c.411.425.539.749-.059.749z"/></symbol><symbol id="icon-key" viewBox="0 0 20 20"><path d="M17.691 4.725c-.503-2.977-3.22-4.967-6.069-4.441S6.366 3.1 6.869 6.079c.107.641.408 1.644.763 2.365l-5.175 7.723c-.191.285-.299.799-.242 1.141l.333 1.971a.612.612 0 00.7.514l1.516-.281c.328-.059.744-.348.924-.639l2.047-3.311.018-.022 1.386-.256 2.39-3.879c.785.139 1.912.092 2.578-.031 2.848-.526 4.087-3.67 3.584-6.649zm-2.525 1.527c-.784 1.17-1.584.346-2.703-.475-1.119-.818-2.135-1.322-1.352-2.492s2.326-1.455 3.447-.635c1.12.819 1.391 2.432.608 3.602z"/></symbol><symbol id="icon-line-graph" viewBox="0 0 20 20"><path d="M.69 11.331l1.363.338 1.026-1.611-1.95-.482a.904.904 0 10-.439 1.755zm17.791.261l-4.463 4.016-5.247-4.061a.905.905 0 00-.338-.162l-.698-.174-1.027 1.611 1.1.273 5.697 4.408a.915.915 0 001.168-.043l5.028-4.527c.372-.334.401-.906.064-1.277s-.911-.4-1.284-.064zM8.684 7.18l4.887 3.129a.913.913 0 001.24-.246l5.027-7.242a.902.902 0 00-.231-1.26.91.91 0 00-1.265.23l-4.528 6.521-4.916-3.147a.915.915 0 00-.688-.123.914.914 0 00-.571.4L.142 17.209A.903.903 0 00.908 18.6a.908.908 0 00.768-.42l7.008-11z"/></symbol><symbol id="icon-location-pin" viewBox="0 0 20 20"><path d="M10 2.009c-2.762 0-5 2.229-5 4.99 0 4.774 5 11 5 11s5-6.227 5-11c0-2.76-2.238-4.99-5-4.99zm0 7.751a2.7 2.7 0 110-5.4 2.7 2.7 0 010 5.4z"/></symbol><symbol id="icon-magnifying-glass" viewBox="0 0 20 20"><path d="M17.545 15.467l-3.779-3.779a6.15 6.15 0 00.898-3.21c0-3.417-2.961-6.377-6.378-6.377S2.1 4.87 2.1 8.287c0 3.416 2.961 6.377 6.377 6.377a6.15 6.15 0 003.115-.844l3.799 3.801a.953.953 0 001.346 0l.943-.943c.371-.371.236-.84-.135-1.211zM4.004 8.287c0-2.366 1.917-4.283 4.282-4.283s4.474 2.107 4.474 4.474c0 2.365-1.918 4.283-4.283 4.283s-4.473-2.109-4.473-4.474z"/></symbol><symbol id="icon-map" viewBox="0 0 20 20"><path d="M19.447 3.718l-6-3a1 1 0 00-.895 0l-5.63 2.815-5.606-1.869A1 1 0 000 2.613v13.001c0 .379.214.725.553.894l6 3a1.006 1.006 0 00.894 0l5.63-2.814 5.606 1.869a.999.999 0 001.316-.949V4.612a.996.996 0 00-.552-.894zM8 5.231l4-2v11.763l-4 2V5.231zM2 4l4 1.333v11.661l-4-2V4zm16 12.227l-4-1.334V3.231l4 2v10.996z"/></symbol><symbol id="icon-price-tag" viewBox="0 0 20 20"><path d="M19.388.405a.605.605 0 00-1.141.399c.929 2.67-.915 4.664-2.321 5.732l-.568-.814c-.191-.273-.618-.5-.95-.504l-3.188.014a2.162 2.162 0 00-1.097.338L.729 12.157a1.01 1.01 0 00-.247 1.404l4.269 6.108c.32.455.831.4 1.287.082l9.394-6.588c.27-.191.582-.603.692-.918l.998-3.145c.11-.314.043-.793-.148-1.066l-.346-.496c1.888-1.447 3.848-4.004 2.76-7.133zm-4.371 9.358a1.608 1.608 0 01-2.24-.396 1.614 1.614 0 01.395-2.246 1.607 1.607 0 011.868.017c-.272.164-.459.26-.494.275a.606.606 0 00.259 1.153c.086 0 .174-.02.257-.059.194-.092.402-.201.619-.33a1.615 1.615 0 01-.664 1.586z"/></symbol><symbol id="icon-star" viewBox="0 0 20 20"><path d="M10 1.3l2.388 6.722H18.8l-5.232 3.948 1.871 6.928L10 14.744l-5.438 4.154 1.87-6.928-5.233-3.948h6.412L10 1.3z"/></symbol><symbol id="icon-bubbles2" viewBox="0 0 36 32"><path d="M15 0c8.284 0 15 5.435 15 12.139s-6.716 12.139-15 12.139c-.796 0-1.576-.051-2.339-.147C9.439 27.34 5.718 27.916 2 28v-.785c2.008-.98 3.625-2.765 3.625-4.804 0-.285-.022-.564-.063-.837C2.17 19.349 0 15.949 0 12.14 0 5.436 6.716.001 15 .001zm16.125 27.209c0 1.748 1.135 3.278 2.875 4.118V32c-3.223-.072-6.181-.566-8.973-3.316-.661.083-1.337.126-2.027.126-2.983 0-5.732-.805-7.925-2.157 4.521-.016 8.789-1.464 12.026-4.084 1.631-1.32 2.919-2.87 3.825-4.605.961-1.84 1.449-3.799 1.449-5.825 0-.326-.014-.651-.039-.974C34.604 13.038 36 15.591 36 18.405c0 3.265-1.88 6.179-4.82 8.086a4.722 4.722 0 00-.055.718z"/></symbol><symbol id="icon-cog" viewBox="0 0 32 32"><path d="M29.181 19.07c-1.679-2.908-.669-6.634 2.255-8.328l-3.145-5.447a6.022 6.022 0 01-3.058.829c-3.361 0-6.085-2.742-6.085-6.125h-6.289a6.023 6.023 0 01-.811 3.07C10.369 5.977 6.637 6.966 3.709 5.28L.565 10.727a6.023 6.023 0 012.246 2.234c1.676 2.903.672 6.623-2.241 8.319l3.145 5.447a6.022 6.022 0 013.044-.82c3.35 0 6.067 2.725 6.084 6.092h6.289a6.032 6.032 0 01.811-3.038c1.676-2.903 5.399-3.894 8.325-2.219l3.145-5.447a6.032 6.032 0 01-2.232-2.226zM16 22.479A6.48 6.48 0 1116 9.52a6.48 6.48 0 010 12.959z"/></symbol><symbol id="icon-arrow-right2" viewBox="0 0 32 32"><path d="M19.414 27.414l10-10a2 2 0 000-2.828l-10-10a2 2 0 10-2.828 2.828L23.172 14H4a2 2 0 100 4h19.172l-6.586 6.586c-.39.39-.586.902-.586 1.414s.195 1.024.586 1.414a2 2 0 002.828 0z"/></symbol></defs></svg>