<svg width="49" height="48" viewBox="0 0 49 48" fill="none" xmlns="http://www.w3.org/2000/svg">
<path d="M24.5004 35.646C18.0685 35.646 12.8544 30.4319 12.8544 24.0001C12.8544 17.5682 18.0685 12.3541 24.5004 12.3541C30.9322 12.3541 36.1463 17.5682 36.1463 24.0001C36.1369 30.428 30.9283 35.6366 24.5004 35.646ZM24.5004 19.1796C21.8381 19.1796 19.6799 21.3378 19.6799 24.0001C19.6799 26.6623 21.8381 28.8205 24.5004 28.8205C27.1626 28.8205 29.3208 26.6623 29.3208 24.0001C29.3161 21.3397 27.1607 19.1843 24.5004 19.1796Z" fill="#EE4732"/>
<path d="M24.5 48C11.2452 48 0.5 37.2548 0.5 24C0.5 10.7452 11.2452 0 24.5 0C37.7548 0 48.5 10.7452 48.5 24C48.4859 37.249 37.749 47.9859 24.5 48ZM24.5 6.82545C15.0148 6.82545 7.32545 14.5148 7.32545 24C7.32545 33.4852 15.0148 41.1745 24.5 41.1745C33.9852 41.1745 41.6745 33.4852 41.6745 24C41.6651 14.5187 33.9813 6.83486 24.5 6.82545Z" fill="#CBD2D5"/>
</svg>
